<?xml version="1.0" encoding="UTF-8"?>
<svg xmlns="http://www.w3.org/2000/svg" xmlns:xlink="http://www.w3.org/1999/xlink" viewBox="0 0 480 480" width="480px" height="480px">
<g id="surface18675772">
<path style=" stroke:none;fill-rule:nonzero;fill:rgb(5.882353%,18.82353%,31.764707%);fill-opacity:1;" d="M 240 40 C 129.542969 40 40 129.542969 40 240 C 40 350.457031 129.542969 440 240 440 C 350.457031 440 440 350.457031 440 240 C 440 129.542969 350.457031 40 240 40 Z M 240 40 "/>
<path style=" stroke:none;fill-rule:nonzero;fill:rgb(100%,100%,100%);fill-opacity:1;" d="M 339.5 150 L 302.039062 341.261719 C 302.039062 341.261719 300.429688 350 289.589844 350 C 283.828125 350 280.859375 347.261719 280.859375 347.261719 L 199.71875 279.929688 L 160.019531 259.921875 L 109.070312 246.371094 C 109.070312 246.371094 100 243.75 100 236.25 C 100 230 109.328125 227.019531 109.328125 227.019531 L 322.488281 142.339844 C 322.480469 142.328125 329 139.988281 333.75 140 C 336.671875 140 340 141.25 340 145 C 340 147.5 339.5 150 339.5 150 Z M 339.5 150 "/>
<path style=" stroke:none;fill-rule:nonzero;fill:rgb(69.01961%,74.509805%,77.254903%);fill-opacity:1;" d="M 230 305.050781 L 195.738281 338.789062 C 195.738281 338.789062 194.25 339.941406 192.261719 339.988281 C 191.570312 340.011719 190.828125 339.898438 190.070312 339.558594 L 199.710938 279.910156 Z M 230 305.050781 "/>
<path style=" stroke:none;fill-rule:nonzero;fill:rgb(81.176472%,84.705883%,86.274511%);fill-opacity:1;" d="M 298.96875 181.960938 C 297.28125 179.761719 294.160156 179.359375 291.960938 181.03125 L 160 260 C 160 260 181.058594 318.921875 184.269531 329.121094 C 187.488281 339.328125 190.070312 339.570312 190.070312 339.570312 L 199.710938 279.921875 L 298.03125 188.960938 C 300.230469 187.289062 300.640625 184.160156 298.96875 181.960938 Z M 298.96875 181.960938 "/>
</g>
</svg>
